<svg width="953" height="982" viewBox="0 0 953 982" fill="none" xmlns="http://www.w3.org/2000/svg">
<g clip-path="url(#clip0_2_51)">
<rect width="953" height="982" fill="#24E8A1"/>
<circle cx="133.5" cy="-25.5" r="387.5" fill="#8247FF"/>
<g filter="url(#filter0_d_2_51)">
<path d="M137.045 452V405.455H168.409V413.568H146.886V424.659H166.795V432.773H146.886V443.886H168.5V452H137.045ZM186.006 452.659C183.778 452.659 181.794 452.273 180.051 451.5C178.309 450.712 176.93 449.553 175.915 448.023C174.915 446.477 174.415 444.553 174.415 442.25C174.415 440.311 174.771 438.682 175.483 437.364C176.195 436.045 177.165 434.985 178.392 434.182C179.619 433.379 181.013 432.773 182.574 432.364C184.15 431.955 185.801 431.667 187.528 431.5C189.559 431.288 191.195 431.091 192.438 430.909C193.68 430.712 194.581 430.424 195.142 430.045C195.703 429.667 195.983 429.106 195.983 428.364V428.227C195.983 426.788 195.528 425.674 194.619 424.886C193.725 424.098 192.453 423.705 190.801 423.705C189.059 423.705 187.672 424.091 186.642 424.864C185.612 425.621 184.93 426.576 184.597 427.727L175.642 427C176.097 424.879 176.991 423.045 178.324 421.5C179.657 419.939 181.377 418.742 183.483 417.909C185.604 417.061 188.059 416.636 190.847 416.636C192.786 416.636 194.642 416.864 196.415 417.318C198.203 417.773 199.786 418.477 201.165 419.432C202.559 420.386 203.657 421.614 204.46 423.114C205.263 424.598 205.665 426.379 205.665 428.455V452H196.483V447.159H196.21C195.65 448.25 194.9 449.212 193.96 450.045C193.021 450.864 191.892 451.508 190.574 451.977C189.256 452.432 187.733 452.659 186.006 452.659ZM188.778 445.977C190.203 445.977 191.46 445.697 192.551 445.136C193.642 444.561 194.498 443.788 195.119 442.818C195.741 441.848 196.051 440.75 196.051 439.523V435.818C195.748 436.015 195.331 436.197 194.801 436.364C194.286 436.515 193.703 436.659 193.051 436.795C192.4 436.917 191.748 437.03 191.097 437.136C190.445 437.227 189.854 437.311 189.324 437.386C188.188 437.553 187.195 437.818 186.347 438.182C185.498 438.545 184.839 439.038 184.369 439.659C183.9 440.265 183.665 441.023 183.665 441.932C183.665 443.25 184.142 444.258 185.097 444.955C186.066 445.636 187.294 445.977 188.778 445.977ZM242.222 427.045L233.358 427.591C233.206 426.833 232.881 426.152 232.381 425.545C231.881 424.924 231.222 424.432 230.403 424.068C229.6 423.689 228.638 423.5 227.517 423.5C226.017 423.5 224.752 423.818 223.722 424.455C222.691 425.076 222.176 425.909 222.176 426.955C222.176 427.788 222.509 428.492 223.176 429.068C223.843 429.644 224.987 430.106 226.608 430.455L232.926 431.727C236.32 432.424 238.85 433.545 240.517 435.091C242.184 436.636 243.017 438.667 243.017 441.182C243.017 443.47 242.343 445.477 240.994 447.205C239.661 448.932 237.828 450.28 235.494 451.25C233.176 452.205 230.502 452.682 227.472 452.682C222.85 452.682 219.169 451.72 216.426 449.795C213.699 447.856 212.1 445.22 211.631 441.886L221.153 441.386C221.441 442.795 222.138 443.871 223.244 444.614C224.35 445.341 225.767 445.705 227.494 445.705C229.191 445.705 230.555 445.379 231.585 444.727C232.631 444.061 233.161 443.205 233.176 442.159C233.161 441.28 232.79 440.561 232.062 440C231.335 439.424 230.214 438.985 228.699 438.682L222.653 437.477C219.244 436.795 216.706 435.614 215.04 433.932C213.388 432.25 212.562 430.106 212.562 427.5C212.562 425.258 213.169 423.326 214.381 421.705C215.608 420.083 217.328 418.833 219.54 417.955C221.767 417.076 224.373 416.636 227.358 416.636C231.767 416.636 235.237 417.568 237.767 419.432C240.313 421.295 241.797 423.833 242.222 427.045ZM255.091 465.091C253.864 465.091 252.712 464.992 251.636 464.795C250.576 464.614 249.697 464.379 249 464.091L251.182 456.864C252.318 457.212 253.341 457.402 254.25 457.432C255.174 457.462 255.97 457.25 256.636 456.795C257.318 456.341 257.871 455.568 258.295 454.477L258.864 453L246.341 417.091H256.523L263.75 442.727H264.114L271.409 417.091H281.659L268.091 455.773C267.439 457.652 266.553 459.288 265.432 460.682C264.326 462.091 262.924 463.174 261.227 463.932C259.53 464.705 257.485 465.091 255.091 465.091ZM301.608 452V405.455H319.972C323.502 405.455 326.509 406.129 328.994 407.477C331.479 408.811 333.373 410.667 334.676 413.045C335.994 415.409 336.653 418.136 336.653 421.227C336.653 424.318 335.987 427.045 334.653 429.409C333.32 431.773 331.388 433.614 328.858 434.932C326.343 436.25 323.297 436.909 319.722 436.909H308.017V429.023H318.131C320.025 429.023 321.585 428.697 322.812 428.045C324.055 427.379 324.979 426.462 325.585 425.295C326.206 424.114 326.517 422.758 326.517 421.227C326.517 419.682 326.206 418.333 325.585 417.182C324.979 416.015 324.055 415.114 322.812 414.477C321.57 413.826 319.994 413.5 318.085 413.5H311.449V452H301.608ZM342.864 452V417.091H352.25V423.182H352.614C353.25 421.015 354.318 419.379 355.818 418.273C357.318 417.152 359.045 416.591 361 416.591C361.485 416.591 362.008 416.621 362.568 416.682C363.129 416.742 363.621 416.826 364.045 416.932V425.523C363.591 425.386 362.962 425.265 362.159 425.159C361.356 425.053 360.621 425 359.955 425C358.53 425 357.258 425.311 356.136 425.932C355.03 426.538 354.152 427.386 353.5 428.477C352.864 429.568 352.545 430.826 352.545 432.25V452H342.864ZM383.199 452.682C379.669 452.682 376.616 451.932 374.04 450.432C371.479 448.917 369.502 446.811 368.108 444.114C366.714 441.402 366.017 438.258 366.017 434.682C366.017 431.076 366.714 427.924 368.108 425.227C369.502 422.515 371.479 420.409 374.04 418.909C376.616 417.394 379.669 416.636 383.199 416.636C386.729 416.636 389.775 417.394 392.335 418.909C394.911 420.409 396.896 422.515 398.29 425.227C399.684 427.924 400.381 431.076 400.381 434.682C400.381 438.258 399.684 441.402 398.29 444.114C396.896 446.811 394.911 448.917 392.335 450.432C389.775 451.932 386.729 452.682 383.199 452.682ZM383.244 445.182C384.85 445.182 386.191 444.727 387.267 443.818C388.343 442.894 389.153 441.636 389.699 440.045C390.259 438.455 390.54 436.644 390.54 434.614C390.54 432.583 390.259 430.773 389.699 429.182C389.153 427.591 388.343 426.333 387.267 425.409C386.191 424.485 384.85 424.023 383.244 424.023C381.623 424.023 380.259 424.485 379.153 425.409C378.063 426.333 377.237 427.591 376.676 429.182C376.131 430.773 375.858 432.583 375.858 434.614C375.858 436.644 376.131 438.455 376.676 440.045C377.237 441.636 378.063 442.894 379.153 443.818C380.259 444.727 381.623 445.182 383.244 445.182ZM422.449 452.682C418.873 452.682 415.797 451.924 413.222 450.409C410.661 448.879 408.691 446.758 407.312 444.045C405.949 441.333 405.267 438.212 405.267 434.682C405.267 431.106 405.956 427.97 407.335 425.273C408.729 422.561 410.706 420.447 413.267 418.932C415.828 417.402 418.873 416.636 422.403 416.636C425.449 416.636 428.116 417.189 430.403 418.295C432.691 419.402 434.502 420.955 435.835 422.955C437.169 424.955 437.903 427.303 438.04 430H428.903C428.646 428.258 427.964 426.856 426.858 425.795C425.767 424.72 424.335 424.182 422.562 424.182C421.062 424.182 419.752 424.591 418.631 425.409C417.525 426.212 416.661 427.386 416.04 428.932C415.419 430.477 415.108 432.348 415.108 434.545C415.108 436.773 415.411 438.667 416.017 440.227C416.638 441.788 417.509 442.977 418.631 443.795C419.752 444.614 421.062 445.023 422.562 445.023C423.669 445.023 424.661 444.795 425.54 444.341C426.434 443.886 427.169 443.227 427.744 442.364C428.335 441.485 428.722 440.432 428.903 439.205H438.04C437.888 441.871 437.161 444.22 435.858 446.25C434.57 448.265 432.79 449.841 430.517 450.977C428.244 452.114 425.555 452.682 422.449 452.682ZM460.148 452.682C456.557 452.682 453.466 451.955 450.875 450.5C448.299 449.03 446.314 446.955 444.92 444.273C443.527 441.576 442.83 438.386 442.83 434.705C442.83 431.114 443.527 427.962 444.92 425.25C446.314 422.538 448.277 420.424 450.807 418.909C453.352 417.394 456.337 416.636 459.761 416.636C462.064 416.636 464.208 417.008 466.193 417.75C468.193 418.477 469.936 419.576 471.42 421.045C472.92 422.515 474.087 424.364 474.92 426.591C475.754 428.803 476.17 431.394 476.17 434.364V437.023H446.693V431.023H467.057C467.057 429.629 466.754 428.394 466.148 427.318C465.542 426.242 464.701 425.402 463.625 424.795C462.564 424.174 461.33 423.864 459.92 423.864C458.451 423.864 457.148 424.205 456.011 424.886C454.89 425.553 454.011 426.455 453.375 427.591C452.739 428.712 452.413 429.962 452.398 431.341V437.045C452.398 438.773 452.716 440.265 453.352 441.523C454.004 442.78 454.92 443.75 456.102 444.432C457.284 445.114 458.686 445.455 460.307 445.455C461.383 445.455 462.367 445.303 463.261 445C464.155 444.697 464.92 444.242 465.557 443.636C466.193 443.03 466.678 442.288 467.011 441.409L475.966 442C475.511 444.152 474.58 446.03 473.17 447.636C471.777 449.227 469.973 450.47 467.761 451.364C465.564 452.242 463.027 452.682 460.148 452.682ZM511.534 427.045L502.67 427.591C502.519 426.833 502.193 426.152 501.693 425.545C501.193 424.924 500.534 424.432 499.716 424.068C498.913 423.689 497.951 423.5 496.83 423.5C495.33 423.5 494.064 423.818 493.034 424.455C492.004 425.076 491.489 425.909 491.489 426.955C491.489 427.788 491.822 428.492 492.489 429.068C493.155 429.644 494.299 430.106 495.92 430.455L502.239 431.727C505.633 432.424 508.163 433.545 509.83 435.091C511.496 436.636 512.33 438.667 512.33 441.182C512.33 443.47 511.655 445.477 510.307 447.205C508.973 448.932 507.14 450.28 504.807 451.25C502.489 452.205 499.814 452.682 496.784 452.682C492.163 452.682 488.481 451.72 485.739 449.795C483.011 447.856 481.413 445.22 480.943 441.886L490.466 441.386C490.754 442.795 491.451 443.871 492.557 444.614C493.663 445.341 495.08 445.705 496.807 445.705C498.504 445.705 499.867 445.379 500.898 444.727C501.943 444.061 502.473 443.205 502.489 442.159C502.473 441.28 502.102 440.561 501.375 440C500.648 439.424 499.527 438.985 498.011 438.682L491.966 437.477C488.557 436.795 486.019 435.614 484.352 433.932C482.701 432.25 481.875 430.106 481.875 427.5C481.875 425.258 482.481 423.326 483.693 421.705C484.92 420.083 486.64 418.833 488.852 417.955C491.08 417.076 493.686 416.636 496.67 416.636C501.08 416.636 504.549 417.568 507.08 419.432C509.625 421.295 511.11 423.833 511.534 427.045ZM547.472 427.045L538.608 427.591C538.456 426.833 538.131 426.152 537.631 425.545C537.131 424.924 536.472 424.432 535.653 424.068C534.85 423.689 533.888 423.5 532.767 423.5C531.267 423.5 530.002 423.818 528.972 424.455C527.941 425.076 527.426 425.909 527.426 426.955C527.426 427.788 527.759 428.492 528.426 429.068C529.093 429.644 530.237 430.106 531.858 430.455L538.176 431.727C541.57 432.424 544.1 433.545 545.767 435.091C547.434 436.636 548.267 438.667 548.267 441.182C548.267 443.47 547.593 445.477 546.244 447.205C544.911 448.932 543.078 450.28 540.744 451.25C538.426 452.205 535.752 452.682 532.722 452.682C528.1 452.682 524.419 451.72 521.676 449.795C518.949 447.856 517.35 445.22 516.881 441.886L526.403 441.386C526.691 442.795 527.388 443.871 528.494 444.614C529.6 445.341 531.017 445.705 532.744 445.705C534.441 445.705 535.805 445.379 536.835 444.727C537.881 444.061 538.411 443.205 538.426 442.159C538.411 441.28 538.04 440.561 537.312 440C536.585 439.424 535.464 438.985 533.949 438.682L527.903 437.477C524.494 436.795 521.956 435.614 520.29 433.932C518.638 432.25 517.812 430.106 517.812 427.5C517.812 425.258 518.419 423.326 519.631 421.705C520.858 420.083 522.578 418.833 524.79 417.955C527.017 417.076 529.623 416.636 532.608 416.636C537.017 416.636 540.487 417.568 543.017 419.432C545.563 421.295 547.047 423.833 547.472 427.045ZM579.835 452L566.517 405.455H577.267L584.972 437.795H585.358L593.858 405.455H603.062L611.54 437.864H611.949L619.653 405.455H630.403L617.085 452H607.494L598.631 421.568H598.267L589.426 452H579.835ZM635.489 452V417.091H645.17V452H635.489ZM640.352 412.591C638.913 412.591 637.678 412.114 636.648 411.159C635.633 410.189 635.125 409.03 635.125 407.682C635.125 406.348 635.633 405.205 636.648 404.25C637.678 403.28 638.913 402.795 640.352 402.795C641.792 402.795 643.019 403.28 644.034 404.25C645.064 405.205 645.58 406.348 645.58 407.682C645.58 409.03 645.064 410.189 644.034 411.159C643.019 412.114 641.792 412.591 640.352 412.591ZM671.494 417.091V424.364H650.472V417.091H671.494ZM655.244 408.727H664.926V441.273C664.926 442.167 665.063 442.864 665.335 443.364C665.608 443.848 665.987 444.189 666.472 444.386C666.972 444.583 667.547 444.682 668.199 444.682C668.653 444.682 669.108 444.644 669.562 444.568C670.017 444.477 670.366 444.409 670.608 444.364L672.131 451.568C671.646 451.72 670.964 451.894 670.085 452.091C669.206 452.303 668.138 452.432 666.881 452.477C664.547 452.568 662.502 452.258 660.744 451.545C659.002 450.833 657.646 449.727 656.676 448.227C655.706 446.727 655.229 444.833 655.244 442.545V408.727ZM688.233 431.818V452H678.551V405.455H687.96V423.25H688.369C689.157 421.189 690.43 419.576 692.188 418.409C693.945 417.227 696.15 416.636 698.801 416.636C701.225 416.636 703.339 417.167 705.142 418.227C706.96 419.273 708.369 420.78 709.369 422.75C710.384 424.705 710.884 427.045 710.869 429.773V452H701.188V431.5C701.203 429.348 700.657 427.674 699.551 426.477C698.46 425.28 696.93 424.682 694.96 424.682C693.642 424.682 692.475 424.962 691.46 425.523C690.46 426.083 689.672 426.902 689.097 427.977C688.536 429.038 688.248 430.318 688.233 431.818ZM762.233 405.455H772.074V435.682C772.074 439.076 771.263 442.045 769.642 444.591C768.036 447.136 765.786 449.121 762.892 450.545C759.998 451.955 756.627 452.659 752.778 452.659C748.915 452.659 745.536 451.955 742.642 450.545C739.748 449.121 737.498 447.136 735.892 444.591C734.286 442.045 733.483 439.076 733.483 435.682V405.455H743.324V434.841C743.324 436.614 743.71 438.189 744.483 439.568C745.271 440.947 746.377 442.03 747.801 442.818C749.225 443.606 750.884 444 752.778 444C754.688 444 756.347 443.606 757.756 442.818C759.18 442.03 760.278 440.947 761.051 439.568C761.839 438.189 762.233 436.614 762.233 434.841V405.455ZM809.034 427.045L800.17 427.591C800.019 426.833 799.693 426.152 799.193 425.545C798.693 424.924 798.034 424.432 797.216 424.068C796.413 423.689 795.451 423.5 794.33 423.5C792.83 423.5 791.564 423.818 790.534 424.455C789.504 425.076 788.989 425.909 788.989 426.955C788.989 427.788 789.322 428.492 789.989 429.068C790.655 429.644 791.799 430.106 793.42 430.455L799.739 431.727C803.133 432.424 805.663 433.545 807.33 435.091C808.996 436.636 809.83 438.667 809.83 441.182C809.83 443.47 809.155 445.477 807.807 447.205C806.473 448.932 804.64 450.28 802.307 451.25C799.989 452.205 797.314 452.682 794.284 452.682C789.663 452.682 785.981 451.72 783.239 449.795C780.511 447.856 778.913 445.22 778.443 441.886L787.966 441.386C788.254 442.795 788.951 443.871 790.057 444.614C791.163 445.341 792.58 445.705 794.307 445.705C796.004 445.705 797.367 445.379 798.398 444.727C799.443 444.061 799.973 443.205 799.989 442.159C799.973 441.28 799.602 440.561 798.875 440C798.148 439.424 797.027 438.985 795.511 438.682L789.466 437.477C786.057 436.795 783.519 435.614 781.852 433.932C780.201 432.25 779.375 430.106 779.375 427.5C779.375 425.258 779.981 423.326 781.193 421.705C782.42 420.083 784.14 418.833 786.352 417.955C788.58 417.076 791.186 416.636 794.17 416.636C798.58 416.636 802.049 417.568 804.58 419.432C807.125 421.295 808.61 423.833 809.034 427.045ZM827.494 405.455L826.608 438.045H818.29L817.381 405.455H827.494ZM822.449 452.591C820.949 452.591 819.661 452.061 818.585 451C817.509 449.924 816.979 448.636 816.994 447.136C816.979 445.652 817.509 444.379 818.585 443.318C819.661 442.258 820.949 441.727 822.449 441.727C823.888 441.727 825.153 442.258 826.244 443.318C827.335 444.379 827.888 445.652 827.903 447.136C827.888 448.136 827.623 449.053 827.108 449.886C826.608 450.705 825.949 451.364 825.131 451.864C824.312 452.348 823.419 452.591 822.449 452.591Z" fill="white"/>
</g>
<circle cx="820.5" cy="893.5" r="387.5" fill="#6700EB"/>
</g>
<defs>
<filter id="filter0_d_2_51" x="117.045" y="395.795" width="730.858" height="102.295" filterUnits="userSpaceOnUse" color-interpolation-filters="sRGB">
<feFlood flood-opacity="0" result="BackgroundImageFix"/>
<feColorMatrix in="SourceAlpha" type="matrix" values="0 0 0 0 0 0 0 0 0 0 0 0 0 0 0 0 0 0 127 0" result="hardAlpha"/>
<feOffset dy="13"/>
<feGaussianBlur stdDeviation="10"/>
<feComposite in2="hardAlpha" operator="out"/>
<feColorMatrix type="matrix" values="0 0 0 0 0 0 0 0 0 0 0 0 0 0 0 0 0 0 0.25 0"/>
<feBlend mode="normal" in2="BackgroundImageFix" result="effect1_dropShadow_2_51"/>
<feBlend mode="normal" in="SourceGraphic" in2="effect1_dropShadow_2_51" result="shape"/>
</filter>
<clipPath id="clip0_2_51">
<rect width="953" height="982" fill="white"/>
</clipPath>
</defs>
</svg>
